<svg width="26" height="37" viewBox="0 0 26 37" fill="none" xmlns="http://www.w3.org/2000/svg">
<path d="M15.4375 0.817017C15.4375 0.817017 16.64 5.26041 16.64 8.86543C16.64 12.3195 14.4462 15.1197 11.0987 15.1197C7.735 15.1197 5.2 12.3195 5.2 8.86543L5.24875 8.2618C1.96625 12.286 0 17.5007 0 23.1681C0 30.5794 5.8175 36.5822 13 36.5822C20.1825 36.5822 26 30.5794 26 23.1681C26 14.1304 21.7913 6.06525 15.4375 0.817017ZM12.5288 31.5519C9.63625 31.5519 7.29625 29.2044 7.29625 26.2869C7.29625 23.5706 9.0025 21.6591 11.8625 21.0554C14.7388 20.4518 17.7125 19.0266 19.37 16.7294C20.0037 18.8924 20.3288 21.1728 20.3288 23.5035C20.3288 27.9469 16.835 31.5519 12.5288 31.5519Z" fill="#FF4344"/>
</svg>
