<svg width="66" height="66" viewBox="0 0 66 66" fill="none" xmlns="http://www.w3.org/2000/svg">
<path d="M30.7999 6.6C30.7999 7.81496 31.7849 8.80004 33 8.80004C34.2149 8.80004 35.2 7.81509 35.2 6.6V2.20004C35.2 0.984954 34.2149 0 33 0C31.7849 0 30.7999 0.984954 30.7999 2.20004V6.6Z" fill="#FFD900"/>
<path d="M30.7999 63.8C30.7999 65.015 31.7849 66 33 66C34.2149 66 35.2 65.015 35.2 63.8V59.4C35.2 58.185 34.2151 57.2 33 57.2C31.7849 57.2 30.7999 58.1849 30.7999 59.4V63.8Z" fill="#FFD900"/>
<path d="M59.4 30.7998C58.185 30.7998 57.2 31.7848 57.2 32.9999C57.2 34.2149 58.1849 35.1999 59.4 35.1999H63.8C65.015 35.1999 66 34.2149 66 32.9999C66 31.7848 65.015 30.7998 63.8 30.7998H59.4Z" fill="#FFD900"/>
<path d="M2.20004 30.7998C0.984954 30.7998 0 31.7848 0 32.9999C0 34.2149 0.984954 35.1999 2.20004 35.1999H6.6C7.81496 35.1999 8.80004 34.2149 8.80004 32.9999C8.80004 31.7848 7.81509 30.7998 6.6 30.7998H2.20004Z" fill="#FFD900"/>
<path d="M33 52.8C43.9352 52.8 52.8 43.9352 52.8 33C52.8 22.0647 43.9352 13.2 33 13.2C22.0648 13.2 13.2 22.0647 13.2 33C13.2 43.9352 22.0648 52.8 33 52.8Z" fill="#FFD900"/>
<path d="M50.1119 12.7767C49.2527 13.6359 49.2527 15.0288 50.1119 15.888C50.9711 16.7472 52.364 16.7472 53.2232 15.888L56.3345 12.7767C57.1937 11.9175 57.1937 10.5246 56.3345 9.66539C55.4753 8.8062 54.0824 8.8062 53.2232 9.66539L50.1119 12.7767Z" fill="#FFD900"/>
<path d="M9.66551 53.2232C8.80632 54.0824 8.80632 55.4753 9.66551 56.3345C10.5247 57.1937 11.9176 57.1937 12.7768 56.3345L15.8881 53.2232C16.7473 52.364 16.7473 50.9711 15.8881 50.1119C15.0289 49.2527 13.636 49.2527 12.7768 50.1119L9.66551 53.2232Z" fill="#FFD900"/>
<path d="M53.2232 50.1119C52.364 49.2527 50.9711 49.2527 50.1119 50.1119C49.2527 50.9711 49.2527 52.364 50.1119 53.2232L53.2232 56.3345C54.0824 57.1937 55.4753 57.1937 56.3345 56.3345C57.1937 55.4753 57.1937 54.0824 56.3345 53.2232L53.2232 50.1119Z" fill="#FFD900"/>
<path d="M12.7768 9.66539C11.9176 8.8062 10.5247 8.8062 9.66551 9.66539C8.80632 10.5246 8.80632 11.9175 9.66551 12.7767L12.7768 15.888C13.636 16.7472 15.0289 16.7472 15.8881 15.888C16.7473 15.0288 16.7473 13.6359 15.8881 12.7767L12.7768 9.66539Z" fill="#FFD900"/>
<path d="M22.8978 9.60699C22.5069 9.60699 22.136 9.37552 21.9772 8.99187L21.1353 6.95928C20.9248 6.45107 21.1661 5.86849 21.6743 5.65801C22.1825 5.44779 22.7651 5.68868 22.9756 6.19703L23.8175 8.22962C24.028 8.73783 23.7867 9.32041 23.2785 9.53089C23.1539 9.58242 23.0248 9.60699 22.8978 9.60699Z" fill="#FFA400"/>
<path d="M43.9454 60.4204C43.5545 60.4204 43.1838 60.1889 43.0248 59.8053L42.1829 57.7727C41.9723 57.2645 42.2136 56.6819 42.7219 56.4714C43.2301 56.2608 43.8127 56.5021 44.0232 57.0104L44.8651 59.043C45.0757 59.5512 44.8344 60.1338 44.3261 60.3443C44.2015 60.396 44.0723 60.4204 43.9454 60.4204Z" fill="#FFA400"/>
<path d="M8.61093 23.8958C8.48384 23.8958 8.35476 23.8714 8.2302 23.8197L6.19761 22.9778C5.6894 22.7673 5.44811 22.1848 5.65859 21.6765C5.86907 21.1683 6.45192 20.9266 6.95987 21.1375L8.99245 21.9794C9.50067 22.1899 9.74196 22.7725 9.53148 23.2807C9.37265 23.6642 9.00175 23.8958 8.61093 23.8958Z" fill="#FFA400"/>
<path d="M59.4243 44.9436C59.2972 44.9436 59.1681 44.9192 59.0435 44.8675L57.011 44.0256C56.5027 43.8151 56.2613 43.2325 56.4721 42.7243C56.6827 42.2162 57.2655 41.9745 57.7733 42.1853L59.8059 43.0272C60.3141 43.2377 60.5556 43.8203 60.345 44.3285C60.186 44.7119 59.8152 44.9436 59.4243 44.9436Z" fill="#FFA400"/>
<path d="M6.58144 44.9437C6.19062 44.9437 5.81972 44.7123 5.66089 44.3286C5.45041 43.8204 5.69183 43.2378 6.19991 43.0273L8.2325 42.1854C8.74058 41.9751 9.32329 42.2161 9.53378 42.7244C9.74426 43.2326 9.50297 43.8152 8.99475 44.0257L6.96217 44.8676C6.8376 44.9192 6.70853 44.9437 6.58144 44.9437Z" fill="#FFA400"/>
<path d="M57.3948 23.8959C57.0039 23.8959 56.6332 23.6645 56.4742 23.2808C56.2636 22.7726 56.5049 22.19 57.0132 21.9795L59.0458 21.1376C59.5539 20.9271 60.1366 21.1684 60.3471 21.6766C60.5577 22.1848 60.3164 22.7674 59.8081 22.9779L57.7755 23.8198C57.6509 23.8715 57.5217 23.8959 57.3948 23.8959Z" fill="#FFA400"/>
<path d="M22.0603 60.4205C21.9334 60.4205 21.8042 60.396 21.6796 60.3444C21.1714 60.1339 20.9301 59.5513 21.1406 59.0431L21.9825 57.0105C22.1929 56.5024 22.7757 56.2606 23.2838 56.4715C23.792 56.682 24.0333 57.2645 23.8228 57.7728L22.9809 59.8053C22.8221 60.1889 22.4512 60.4205 22.0603 60.4205Z" fill="#FFA400"/>
<path d="M43.1079 9.60693C42.9808 9.60693 42.8518 9.58249 42.7272 9.53084C42.219 9.32035 41.9776 8.73777 42.1882 8.22956L43.0301 6.19697C43.2407 5.68889 43.8237 5.4472 44.3314 5.65795C44.8396 5.86843 45.081 6.45101 44.8704 6.95923L44.0285 8.99181C43.8697 9.37533 43.4989 9.60693 43.1079 9.60693Z" fill="#FFA400"/>
<path d="M33 13.2C32.4861 13.2 31.9768 13.2196 31.4728 13.258C41.6945 14.0376 49.7457 22.5786 49.7457 33C49.7457 43.4213 41.6945 51.9623 31.4728 52.7419C31.9768 52.7803 32.4861 52.8001 33 52.8001C43.9353 52.8001 52.8 43.9354 52.8 33.0001C52.8 22.0648 43.9353 13.2 33 13.2Z" fill="#FFBB00"/>
<path d="M6.60004 30.7998H3.54572C4.76067 30.7998 5.74576 31.7848 5.74576 32.9999C5.74576 34.2148 4.76081 35.1999 3.54572 35.1999H6.60004C7.815 35.1999 8.80009 34.2149 8.80009 32.9999C8.80009 31.7849 7.815 30.7998 6.60004 30.7998Z" fill="#FFBB00"/>
<path d="M63.8 30.7998H60.7457C61.9608 30.7998 62.9457 31.7848 62.9457 32.9999C62.9457 34.2148 61.9608 35.1999 60.7457 35.1999H63.8C65.0151 35.1999 66 34.2149 66 32.9999C66 31.7849 65.0151 30.7998 63.8 30.7998Z" fill="#FFBB00"/>
<path d="M33 0C32.4063 0 31.8686 0.236245 31.4728 0.618435C31.887 1.01855 32.1457 1.57869 32.1457 2.20004V6.6C32.1457 7.22136 31.887 7.78149 31.4728 8.18148C31.8686 8.56367 32.4063 8.79991 33 8.79991C34.215 8.79991 35.2 7.81496 35.2 6.59987V2.20004C35.2 0.984954 34.215 0 33 0V0Z" fill="#FFBB00"/>
<path d="M33 57.2C32.4063 57.2 31.8686 57.4362 31.4728 57.8184C31.887 58.2185 32.1457 58.7785 32.1457 59.3999V63.7998C32.1457 64.4212 31.887 64.9813 31.4728 65.3813C31.8686 65.7635 32.4063 65.9997 33 65.9997C34.215 65.9997 35.2 65.0148 35.2 63.7997V59.4C35.2 58.1849 34.215 57.2 33 57.2Z" fill="#FFBB00"/>
<path d="M56.3345 9.66562C55.4845 8.81559 54.1129 8.80802 53.2518 9.63985C53.2611 9.64889 53.2711 9.65645 53.2802 9.66562C54.1394 10.5248 54.1394 11.9177 53.2802 12.7769L50.1689 15.8882C50.1598 15.8974 50.1497 15.9049 50.1405 15.914C51.0017 16.7458 52.3733 16.7382 53.2232 15.8882L56.3345 12.7769C57.1937 11.9177 57.1937 10.5248 56.3345 9.66562Z" fill="#FFBB00"/>
<path d="M56.3345 53.2232L53.2232 50.1119C52.3732 49.2619 51.0016 49.2543 50.1405 50.0861C50.1498 50.095 50.1598 50.1027 50.1689 50.1119L53.2802 53.2232C54.1394 54.0824 54.1394 55.4753 53.2802 56.3345C53.2711 56.3437 53.261 56.3512 53.2518 56.3603C54.1129 57.1922 55.4845 57.1845 56.3345 56.3345C57.1937 55.4753 57.1937 54.0824 56.3345 53.2232Z" fill="#FFBB00"/>
<path d="M15.8881 12.7768L12.7768 9.66555C11.9278 8.81658 10.5587 8.80808 9.69739 9.63687C9.70775 9.64683 9.71903 9.65532 9.72913 9.66555L12.8404 12.7768C13.6996 13.636 13.6996 15.0289 12.8404 15.8881C12.8302 15.8984 12.819 15.9069 12.8087 15.9168C13.67 16.7456 15.0393 16.737 15.8881 15.8881C16.7472 15.0289 16.7472 13.6359 15.8881 12.7768Z" fill="#FFBB00"/>
<path d="M15.8881 50.1121C15.0391 49.2631 13.67 49.2546 12.8087 50.0834C12.819 50.0934 12.8302 50.1019 12.8404 50.1121C13.6996 50.9713 13.6996 52.3642 12.8404 53.2234L9.72913 56.3347C9.7189 56.3449 9.70775 56.3534 9.69739 56.3634C10.5587 57.1922 11.928 57.1835 12.7768 56.3347L15.8881 53.2234C16.7472 52.3642 16.7472 50.9713 15.8881 50.1121Z" fill="#FFBB00"/>
</svg>
